<svg width="100" height="100" viewBox="0 0 100 100" fill="none" xmlns="http://www.w3.org/2000/svg">
<path fill-rule="evenodd" clip-rule="evenodd" d="M50 100C77.6143 100 100 77.6143 100 50C100 22.3857 77.6143 0 50 0C22.3857 0 0 22.3857 0 50C0 77.6143 22.3857 100 50 100ZM59.8787 30.4033L55.7063 17.5623C53.9102 12.0344 46.0898 12.0344 44.2937 17.5623L40.1213 30.4033C39.3181 32.8755 37.0144 34.5491 34.415 34.5491H20.9133C15.1008 34.5491 12.6843 41.9868 17.3865 45.4033L28.3098 53.3394C30.4126 54.8672 31.2925 57.5754 30.4893 60.0476L26.3171 72.8884C24.521 78.4165 30.8479 83.0132 35.55 79.5967L46.4734 71.6606C48.5762 70.1328 51.4238 70.1328 53.5266 71.6606L64.45 79.5967C69.1521 83.0132 75.479 78.4165 73.6829 72.8887L69.5107 60.0476C68.7075 57.5754 69.5874 54.8672 71.6902 53.3394L82.6135 45.4033C87.3157 41.9868 84.8992 34.5491 79.0867 34.5491H65.585C62.9856 34.5491 60.6819 32.8755 59.8787 30.4033Z" fill="#D88769"/>
</svg>
